<?xml version="1.0" standalone="no"?>
<!DOCTYPE svg PUBLIC "-//W3C//DTD SVG 20010904//EN"
 "http://www.w3.org/TR/2001/REC-SVG-20010904/DTD/svg10.dtd">
<svg version="1.0" xmlns="http://www.w3.org/2000/svg"
 width="551.000000pt" height="551.000000pt" viewBox="0 0 551.000000 551.000000"
 preserveAspectRatio="xMidYMid meet">
<metadata>
Created by potrace 1.14, written by Peter Selinger 2001-2017
</metadata>
<g transform="translate(0.000000,551.000000) scale(0.100000,-0.100000)"
fill="#000000" stroke="none">
<path d="M2570 5277 c-3 -3 -45 -7 -93 -11 -49 -3 -92 -8 -95 -10 -4 -2 -29
-6 -57 -10 -70 -8 -96 -13 -215 -42 -364 -86 -728 -259 -1027 -490 -118 -91
-135 -105 -274 -244 -219 -217 -376 -433 -509 -699 -165 -330 -257 -657 -287
-1016 -15 -192 -8 -413 22 -643 9 -69 54 -277 70 -322 8 -22 14 -44 15 -48 2
-42 102 -296 169 -431 183 -366 436 -680 752 -931 170 -136 182 -143 242 -136
238 25 282 42 402 157 33 31 81 76 107 99 77 69 109 153 122 325 9 113 29 246
62 420 15 80 62 149 170 250 153 142 184 184 184 246 0 48 -16 86 -49 119 -48
47 -176 143 -238 180 -90 53 -93 70 -25 129 50 45 52 47 95 74 16 10 27 20 25
22 -4 5 -115 22 -193 30 -123 13 -376 4 -540 -20 l-50 -7 45 34 c92 71 274
191 395 260 87 51 342 175 446 218 250 103 611 205 829 235 25 3 52 8 60 10 8
2 44 7 80 10 36 4 74 9 85 11 117 23 667 23 845 -1 19 -2 58 -7 85 -10 46 -5
201 -28 270 -39 17 -3 46 -9 65 -14 l35 -8 -40 -8 c-55 -11 -216 -71 -300
-113 -151 -76 -465 -295 -465 -325 0 -4 12 -8 27 -8 40 0 176 -39 211 -61 44
-26 43 -61 -1 -88 -54 -33 -151 -141 -191 -213 -52 -93 -59 -123 -45 -183 11
-46 25 -63 171 -210 173 -173 220 -238 263 -364 27 -81 50 -185 60 -271 3 -30
8 -71 10 -90 2 -19 7 -57 10 -85 16 -143 53 -286 83 -320 49 -58 153 -66 286
-25 75 24 113 57 227 202 28 34 57 72 66 82 79 97 263 421 327 576 30 72 106
290 101 290 -2 0 2 15 10 33 14 33 70 306 79 387 31 261 25 571 -14 790 -6 30
-12 69 -15 85 -3 17 -8 41 -11 55 -3 14 -7 33 -9 42 -38 187 -192 579 -290
738 -89 144 -117 186 -175 265 -385 525 -953 903 -1580 1051 -107 25 -182 39
-265 49 -27 4 -61 9 -75 12 -31 6 -474 15 -480 10z m139 -208 c162 -73 392
-368 683 -874 215 -374 468 -869 453 -884 -32 -32 -169 64 -275 192 -124 149
-305 442 -458 738 -84 164 -122 229 -134 229 -11 0 3 -31 96 -221 144 -293
252 -478 384 -659 162 -220 263 -298 436 -334 11 -3 58 -14 103 -25 45 -11 92
-22 105 -25 67 -12 392 -97 424 -111 44 -18 84 -52 84 -72 0 -16 4 -16 -72 2
-78 17 -190 37 -293 49 -27 4 -59 9 -70 11 -123 26 -838 26 -918 0 -7 -2 -34
-6 -62 -9 -109 -13 -277 -43 -380 -68 -44 -10 -87 -21 -95 -22 -146 -35 -397
-118 -513 -170 -17 -8 -61 -27 -97 -42 -230 -99 -599 -330 -753 -471 -39 -36
-47 -34 -47 12 0 23 12 46 42 81 53 60 34 44 224 194 194 153 319 276 356 350
28 57 32 74 43 175 3 33 8 71 10 85 5 30 12 77 20 145 9 70 11 85 50 310 30
178 29 176 56 301 11 55 23 112 26 129 3 16 22 97 43 180 117 456 257 742 395
806 51 24 79 23 134 -2z"/>
<path d="M3148 2844 c-16 -8 -37 -32 -47 -52 -71 -140 -10 -314 113 -326 32
-3 44 1 67 23 31 32 49 86 49 151 0 93 -39 168 -106 200 -47 23 -42 23 -76 4z"/>
<path d="M2600 2761 c-74 -20 -95 -190 -39 -308 28 -59 63 -78 132 -74 33 2
75 58 87 116 31 150 -68 296 -180 266z"/>
</g>
</svg>
